# xmcd
#
# Track frame offsets:
#	150
#	10922
#	23032
#	33017
#	42717
#	54849
#	63249
#	73932
#	86412
#	97772
#	110614
#	124137
#
# Disc length: 1778 seconds
#
# Revision: 1
# Processed by: cddbd v1.4PL0 Copyright (c) Steve Scherf et al.
# Submitted via: CDmax 1.8
#
DISCID=9306f00c
DTITLE=Various Artist - Girl Groups
DYEAR=1900
DGENRE=Blues
TTITLE0=To know him is to love him
TTITLE1=Will you love me tomorrow
TTITLE2=My boyfriend´s back
TTITLE3=Hel´s a rebel
TTITLE4=Soldier boy
TTITLE5=He´s so fine
TTITLE6=Da doo ron ron (when he walked me home)
TTITLE7=Chapel of love
TTITLE8=Goodnight baby
TTITLE9=Leader of the pack
TTITLE10=The boy from New York City
TTITLE11=Iko, Iko
EXTD=
EXTT0=
EXTT1=
EXTT2=
EXTT3=
EXTT4=
EXTT5=
EXTT6=
EXTT7=
EXTT8=
EXTT9=
EXTT10=
EXTT11=
PLAYORDER=
